<?xml version="1.0" encoding="utf-8"?>
<!-- Generator: Adobe Illustrator 24.1.0, SVG Export Plug-In . SVG Version: 6.00 Build 0)  -->
<svg version="1.1" id="Layer_1" xmlns="http://www.w3.org/2000/svg" xmlns:xlink="http://www.w3.org/1999/xlink" x="0px" y="0px"
	 viewBox="0 0 107.6 107.6" style="enable-background:new 0 0 107.6 107.6;" xml:space="preserve">
<style type="text/css">
	.st0{fill:#ffffff;}
</style>
<g id="Layer_2_1_">
	<g id="Notch_-_Purple">
		<g id="icon">
			<path class="st0" d="M66.1,0c0,0.2,0,0.4,0,0.6c0,6.8-5.5,12.3-12.3,12.3c-6.8,0-12.3-5.5-12.3-12.3c0-0.2,0-0.4,0-0.6H0v107.6
				h107.6V0H66.1z M51.4,96.1l-5.2-25.9H46l-5.7,25.9h-7.2L25,58h7.1L37,83.9h0.1L42.9,58h6.7l5.3,26.2H55L60.6,58h7l-9.1,38.1H51.4
				z M90.6,96.1l-2.4-8.5H75.4l-1.9,8.5h-7.1L75.6,58h11.2L98,96.1H90.6z"/>
			<polygon class="st0" points="79.9,67.4 76.8,81.4 86.4,81.4 82.9,67.4 			"/>
		</g>
	</g>
</g>
</svg>
